<?xml version="1.0" encoding="utf-8"?>
<!-- Generator: Adobe Illustrator 23.1.1, SVG Export Plug-In . SVG Version: 6.00 Build 0)  -->
<svg version="1.1" id="Capa_1" xmlns="http://www.w3.org/2000/svg" xmlns:xlink="http://www.w3.org/1999/xlink" x="0px" y="0px"
	 viewBox="0 0 50 50" style="enable-background:new 0 0 50 50;" xml:space="preserve">
<style type="text/css">
	.st0{fill:#FFFFFF;stroke:#D08600;stroke-width:1.5707;stroke-miterlimit:10;}
	.st1{fill:#B5ADB7;}
	.st2{fill:#A59DA7;}
	.st3{fill:#968D97;}
	.st4{fill:#877F87;}
	.st5{fill:#FDFCFC;}
	.st6{fill:#F1F1F1;}
	.st7{fill:#D4CFD5;}
	.st8{fill:#C5BEC6;}
	.st9{fill:#BED9FD;}
	.st10{fill:#CBE2FF;}
	.st11{fill:#7BA0B0;}
	.st12{fill:#DCF5FF;}
	.st13{fill:#688B96;}
	.st14{fill:#DDEAFB;}
	.st15{fill:#D5B0EC;}
	.st16{fill:#C995E4;}
	.st17{fill:#FFFFFF;stroke:#D08600;stroke-width:4.1602;stroke-miterlimit:10;}
</style>
<g>
	<circle class="st0" cx="24.5" cy="25" r="22.2"/>
	<g>
		<g>
			<g>
				<path class="st1" d="M29.5,36H19.4l0.8-6.1h8.6L29.5,36z"/>
			</g>
		</g>
		<g>
			<g>
				<path class="st2" d="M28.8,29.9h-1.5L28,36h1.5L28.8,29.9z"/>
			</g>
		</g>
		<g>
			<g>
				<path class="st3" d="M32.6,37.6H16.5V37c0-0.5,0.4-0.9,0.9-0.9h14.2c0.5,0,0.9,0.4,0.9,0.9V37.6z"/>
			</g>
		</g>
		<g>
			<g>
				<path class="st4" d="M31.6,36h-1.5c0.5,0,0.9,0.4,0.9,0.9v0.7h1.5V37C32.6,36.5,32.1,36,31.6,36z"/>
			</g>
		</g>
		<g>
			<g>
				<circle class="st5" cx="24.5" cy="24" r="9.5"/>
			</g>
		</g>
		<g>
			<g>
				<path class="st6" d="M24.5,14.5c-0.3,0-0.5,0-0.8,0c4.9,0.4,8.7,4.5,8.7,9.5s-3.9,9.1-8.7,9.5c0.3,0,0.5,0,0.8,0
					c5.3,0,9.5-4.3,9.5-9.5C34,18.7,29.7,14.5,24.5,14.5L24.5,14.5z"/>
			</g>
		</g>
		<g>
			<g>
				<ellipse class="st5" cx="24.5" cy="24" rx="4.8" ry="4.8"/>
			</g>
		</g>
		<g>
			<g>
				<ellipse class="st7" cx="24.5" cy="24" rx="4.8" ry="4.8"/>
			</g>
		</g>
		<g>
			<g>
				<path class="st8" d="M24.5,19.1c-0.3,0-0.5,0-0.8,0.1c2.3,0.4,4.1,2.4,4.1,4.8s-1.8,4.4-4.1,4.8c0.2,0,0.5,0.1,0.8,0.1
					c2.7,0,4.8-2.2,4.8-4.8S27.1,19.1,24.5,19.1L24.5,19.1z"/>
			</g>
		</g>
		<g>
			<g>
				<circle class="st3" cx="24.5" cy="24" r="2.5"/>
			</g>
		</g>
		<g>
			<g>
				<path class="st4" d="M24.5,21.5c-0.3,0-0.5,0-0.8,0.1c1,0.3,1.8,1.3,1.8,2.4s-0.7,2.1-1.8,2.4c0.2,0.1,0.5,0.1,0.8,0.1
					c1.4,0,2.5-1.1,2.5-2.5S25.9,21.5,24.5,21.5L24.5,21.5z"/>
			</g>
		</g>
		<g>
			<g>
				<path class="st9" d="M25.6,17.3h-2.2c-0.4,0-0.8-0.4-0.8-0.8v-2.2c0-1.1,0.9-1.9,1.9-1.9c1.1,0,1.9,0.9,1.9,1.9v2.2
					C26.4,17,26,17.3,25.6,17.3z"/>
			</g>
		</g>
		<g>
			<path d="M19.2,24c0,2.9,2.3,5.2,5.2,5.2s5.2-2.3,5.2-5.2c0-2.9-2.3-5.2-5.2-5.2S19.2,21.1,19.2,24z M28.9,24c0,2.5-2,4.5-4.5,4.5
				S20,26.4,20,24c0-2.5,2-4.5,4.5-4.5S28.9,21.5,28.9,24z"/>
			<path d="M21.6,24c0,1.6,1.3,2.9,2.9,2.9s2.9-1.3,2.9-2.9s-1.3-2.9-2.9-2.9C22.9,21.1,21.6,22.4,21.6,24L21.6,24z M26.6,24
				c0,1.2-1,2.1-2.1,2.1c-1.2,0-2.1-1-2.1-2.1c0-1.2,1-2.1,2.1-2.1C25.6,21.8,26.6,22.8,26.6,24z"/>
			<path d="M31.6,35.6h-1.7l-0.4-3.1c2.9-1.7,4.9-4.9,4.9-8.5c0-2.3-0.7-4.4-2.1-6.2c-0.1-0.2-0.4-0.2-0.5-0.1
				c-0.2,0.1-0.2,0.4-0.1,0.5c1.3,1.6,2,3.6,2,5.7c0,5-4.1,9.1-9.1,9.1S15.3,29,15.3,24c0-2.1,0.7-4.1,2-5.8
				c1.2-1.5,2.9-2.6,4.8-3.1v1.4c0,0.6,0.5,1.2,1.2,1.2h2.2c0.6,0,1.2-0.5,1.2-1.2v-1.4c1.4,0.4,2.7,1.1,3.8,2
				c0.1,0.1,0.2,0.1,0.3,0.1c0.1,0,0.2,0,0.3-0.1c0.1-0.2,0.1-0.4,0-0.5c-1.2-1.1-2.7-1.9-4.3-2.3v-0.1c0-1.3-1-2.3-2.3-2.3
				c-1.3,0-2.3,1-2.3,2.3v0c-2.1,0.5-4,1.7-5.4,3.4c-1.4,1.8-2.2,4-2.2,6.2c0,3.6,2,6.8,4.9,8.5l-0.4,3.1h-1.7
				c-0.7,0-1.3,0.6-1.3,1.3v0.7c0,0.2,0.2,0.4,0.4,0.4H17c0.2,0,0.4-0.2,0.4-0.4c0-0.2-0.2-0.4-0.4-0.4h-0.1V37
				c0-0.3,0.3-0.6,0.6-0.6h14.2c0.3,0,0.6,0.3,0.6,0.6v0.3H18.5c-0.2,0-0.4,0.2-0.4,0.4c0,0.2,0.2,0.4,0.4,0.4h14
				c0.2,0,0.4-0.2,0.4-0.4V37C33,36.2,32.4,35.6,31.6,35.6L31.6,35.6z M22.9,14.3c0-0.8,0.7-1.5,1.5-1.5c0.8,0,1.5,0.7,1.5,1.5v2.2
				c0,0.2-0.2,0.4-0.4,0.4h-2.2c-0.2,0-0.4-0.2-0.4-0.4V14.3z M20.2,32.9c1.3,0.6,2.8,1,4.3,1c1.5,0,3-0.4,4.3-1l0.3,2.8h-9.3
				L20.2,32.9z"/>
		</g>
	</g>
	<path class="st17" d="M11.2,8l27.3,33.9L11.2,8z"/>
</g>
</svg>
