<?xml version="1.0" encoding="utf-8"?>
<!-- Generator: Adobe Illustrator 23.1.1, SVG Export Plug-In . SVG Version: 6.00 Build 0)  -->
<svg version="1.1" id="Capa_1" xmlns="http://www.w3.org/2000/svg" xmlns:xlink="http://www.w3.org/1999/xlink" x="0px" y="0px"
	 viewBox="0 0 50 50" style="enable-background:new 0 0 50 50;" xml:space="preserve">
<style type="text/css">
	.st0{fill:#FFFFFF;stroke:#D08600;stroke-width:1.5707;stroke-miterlimit:10;}
	.st1{fill:#B5ADB7;}
	.st2{fill:#A59DA7;}
	.st3{fill:#968D97;}
	.st4{fill:#877F87;}
	.st5{fill:#FDFCFC;}
	.st6{fill:#F1F1F1;}
	.st7{fill:#D4CFD5;}
	.st8{fill:#C5BEC6;}
	.st9{fill:#BED9FD;}
	.st10{fill:#CBE2FF;}
	.st11{fill:#7BA0B0;}
	.st12{fill:#DCF5FF;}
	.st13{fill:#688B96;}
	.st14{fill:#DDEAFB;}
	.st15{fill:#D5B0EC;}
	.st16{fill:#C995E4;}
	.st17{fill:#FFFFFF;stroke:#D08600;stroke-width:4.1602;stroke-miterlimit:10;}
</style>
<g>
	<circle class="st0" cx="24.9" cy="25.4" r="22.2"/>
	<g>
		<g>
			<g>
				<path class="st1" d="M30,36.4H19.8l0.8-6.1h8.6L30,36.4z"/>
			</g>
		</g>
		<g>
			<g>
				<path class="st2" d="M29.2,30.3h-1.5l0.8,6.1H30L29.2,30.3z"/>
			</g>
		</g>
		<g>
			<g>
				<path class="st3" d="M33,38.1H16.9v-0.7c0-0.5,0.4-0.9,0.9-0.9H32c0.5,0,0.9,0.4,0.9,0.9L33,38.1z"/>
			</g>
		</g>
		<g>
			<g>
				<path class="st4" d="M32,36.4h-1.5c0.5,0,0.9,0.4,0.9,0.9v0.7H33v-0.7C33,36.9,32.6,36.4,32,36.4z"/>
			</g>
		</g>
		<g>
			<g>
				<circle class="st5" cx="24.9" cy="24.4" r="9.5"/>
			</g>
		</g>
		<g>
			<g>
				<path class="st6" d="M24.9,14.9c-0.3,0-0.5,0-0.8,0c4.9,0.4,8.7,4.5,8.7,9.5s-3.9,9.1-8.7,9.5c0.3,0,0.5,0,0.8,0
					c5.3,0,9.5-4.3,9.5-9.5C34.4,19.1,30.1,14.9,24.9,14.9L24.9,14.9z"/>
			</g>
		</g>
		<g>
			<g>
				<ellipse class="st5" cx="24.9" cy="24.4" rx="4.8" ry="4.8"/>
			</g>
		</g>
		<g>
			<g>
				<ellipse class="st7" cx="24.9" cy="24.4" rx="4.8" ry="4.8"/>
			</g>
		</g>
		<g>
			<g>
				<path class="st8" d="M24.9,19.6c-0.3,0-0.5,0-0.8,0.1c2.3,0.4,4.1,2.4,4.1,4.8s-1.8,4.4-4.1,4.8c0.2,0,0.5,0.1,0.8,0.1
					c2.7,0,4.8-2.2,4.8-4.8S27.6,19.6,24.9,19.6L24.9,19.6z"/>
			</g>
		</g>
		<g>
			<g>
				<circle class="st3" cx="24.9" cy="24.4" r="2.5"/>
			</g>
		</g>
		<g>
			<g>
				<path class="st4" d="M24.9,21.9c-0.3,0-0.5,0-0.8,0.1c1,0.3,1.8,1.3,1.8,2.4s-0.7,2.1-1.8,2.4c0.2,0.1,0.5,0.1,0.8,0.1
					c1.4,0,2.5-1.1,2.5-2.5S26.3,21.9,24.9,21.9L24.9,21.9z"/>
			</g>
		</g>
		<g>
			<g>
				<path class="st9" d="M26,17.7h-2.2c-0.4,0-0.8-0.4-0.8-0.8v-2.2c0-1.1,0.9-1.9,1.9-1.9c1.1,0,1.9,0.9,1.9,1.9V17
					C26.8,17.4,26.4,17.7,26,17.7z"/>
			</g>
		</g>
		<g>
			<path d="M19.7,24.4c0,2.9,2.3,5.2,5.2,5.2s5.2-2.3,5.2-5.2c0-2.9-2.3-5.2-5.2-5.2S19.7,21.5,19.7,24.4z M29.3,24.4
				c0,2.5-2,4.5-4.5,4.5s-4.5-2-4.5-4.5c0-2.5,2-4.5,4.5-4.5S29.3,21.9,29.3,24.4z"/>
			<path d="M22,24.4c0,1.6,1.3,2.9,2.9,2.9c1.6,0,2.9-1.3,2.9-2.9s-1.3-2.9-2.9-2.9S22,22.8,22,24.4L22,24.4z M27,24.4
				c0,1.2-1,2.1-2.1,2.1s-2.1-1-2.1-2.1c0-1.2,1-2.1,2.1-2.1C26.1,22.3,27,23.2,27,24.4z"/>
			<path d="M32,36.1h-1.7l-0.4-3.1c2.9-1.7,4.9-4.9,4.9-8.5c0-2.3-0.7-4.4-2.1-6.2c-0.1-0.2-0.4-0.2-0.5-0.1
				c-0.2,0.1-0.2,0.4-0.1,0.5c1.3,1.6,2,3.6,2,5.7c0,5-4.1,9.1-9.1,9.1s-9.1-4.1-9.1-9.1c0-2.1,0.7-4.1,2-5.8
				c1.2-1.5,2.9-2.6,4.8-3.1V17c0,0.6,0.5,1.2,1.2,1.2H26c0.6,0,1.2-0.5,1.2-1.2v-1.4c1.4,0.4,2.7,1.1,3.8,2
				c0.1,0.1,0.2,0.1,0.3,0.1c0.1,0,0.2,0,0.3-0.1c0.1-0.2,0.1-0.4,0-0.5c-1.2-1.1-2.7-1.9-4.3-2.3v-0.1c0-1.3-1-2.3-2.3-2.3
				c-1.3,0-2.3,1-2.3,2.3v0c-2.1,0.5-4,1.7-5.4,3.4c-1.4,1.8-2.2,4-2.2,6.2c0,3.6,2,6.8,4.9,8.5l-0.4,3.1h-1.7
				c-0.7,0-1.3,0.6-1.3,1.3v0.7c0,0.2,0.2,0.4,0.4,0.4h0.5c0.2,0,0.4-0.2,0.4-0.4c0-0.2-0.2-0.4-0.4-0.4h-0.1v-0.3
				c0-0.3,0.3-0.6,0.6-0.6H32c0.3,0,0.6,0.3,0.6,0.6v0.3H18.9c-0.2,0-0.4,0.2-0.4,0.4c0,0.2,0.2,0.4,0.4,0.4h14
				c0.2,0,0.4-0.2,0.4-0.4v-0.7C33.4,36.7,32.8,36.1,32,36.1L32,36.1z M23.4,14.7c0-0.8,0.7-1.5,1.5-1.5c0.8,0,1.5,0.7,1.5,1.5V17
				c0,0.2-0.2,0.4-0.4,0.4h-2.2c-0.2,0-0.4-0.2-0.4-0.4L23.4,14.7z M20.6,33.3c1.3,0.6,2.8,1,4.3,1c1.5,0,3-0.4,4.3-1l0.3,2.8h-9.3
				L20.6,33.3z"/>
		</g>
	</g>
	<circle class="st0" cx="25" cy="25.5" r="22.2"/>
	<g>
		<g>
			<path class="st10" d="M17.9,34.4c-0.4,0-0.7,0-1.1-0.1l-0.6,4.2h3.3L19,34.3C18.7,34.4,18.3,34.4,17.9,34.4z"/>
			<path class="st11" d="M22.9,20.4c0-2.7-2.2-4.9-4.9-4.9c-2.7,0-4.9,2.2-4.9,4.9v5.9l1.2,1h7.6l1.2-1L22.9,20.4L22.9,20.4z"/>
			<g>
				<g>
					<path class="st12" d="M13,27.3c0,2.7,2.2,4.9,4.9,4.9c2.7,0,4.9-2.2,4.9-4.9v-1.1H13L13,27.3z"/>
					<path class="st13" d="M17.9,15.5c-0.4,0-0.8,0-1.2,0.1c2.2,0.5,3.8,2.5,3.8,4.8v6.8h1.1l1.2-1v-5.9
						C22.9,17.7,20.7,15.5,17.9,15.5z"/>
					<path class="st14" d="M20.6,26.2v1.1c0,2.3-1.6,4.3-3.8,4.8c0.4,0.1,0.8,0.1,1.2,0.1c2.7,0,4.9-2.2,4.9-4.9v-1.1H20.6z"/>
					<path class="st12" d="M21.6,37.1h-7.3c-0.9,0-1.7,0.7-1.7,1.7c0,0.3,0.3,0.6,0.6,0.6h9.5c0.3,0,0.6-0.3,0.6-0.6
						C23.2,37.9,22.5,37.1,21.6,37.1L21.6,37.1z"/>
					<path class="st14" d="M21.6,37.1h-1.7c0.6,0,1.1,0.5,1.1,1.1v1.2h1.7c0.3,0,0.6-0.3,0.6-0.6C23.2,37.9,22.5,37.1,21.6,37.1z"/>
				</g>
				<g>
					<g>
						<g>
							<g>
								<g>
									<path class="st15" d="M36.1,11.2h-8.2c-1.6,0-2.9,1.3-2.9,2.9v3.5c0,1.4,1,2.6,2.3,2.9c0.4,0.1,0.7,0.5,0.7,0.9V24
										c0,0.3,0.3,0.4,0.5,0.2l2.3-3.2c0.2-0.2,0.4-0.4,0.7-0.4h4.7c1.6,0,2.9-1.3,2.9-2.9v-3.5C39,12.5,37.7,11.2,36.1,11.2
										L36.1,11.2z"/>
								</g>
							</g>
						</g>
					</g>
				</g>
				<g>
					<path class="st16" d="M27.8,21.7V24c0,0.3,0.3,0.4,0.5,0.2l2.3-3.2c0.2-0.2,0.4-0.4,0.7-0.4h-2c-0.4,0-0.9,0.2-1.1,0.6
						L27.8,21.7z"/>
					<path class="st16" d="M36.1,11.2h-0.9c0.9,0,1.6,0.7,1.6,1.6v6.3c0,0.9-0.7,1.6-1.6,1.6h0.9c1.6,0,2.9-1.3,2.9-2.9v-3.5
						C39,12.5,37.7,11.2,36.1,11.2L36.1,11.2z"/>
				</g>
			</g>
		</g>
		<g>
			<g>
				<path d="M24.9,24.4c-0.2,0-0.4,0.2-0.4,0.4v2.6c0,3.6-2.9,6.6-6.6,6.6c-3.6,0-6.6-2.9-6.6-6.6v-2.6c0-0.2-0.2-0.4-0.4-0.4
					c-0.2,0-0.4,0.2-0.4,0.4v2.6c0,3.5,2.5,6.5,5.8,7.2l-0.3,2h-1.8c-1.2,0-2.1,0.9-2.1,2.1c0,0.5,0.4,1,1,1h9.5c0.5,0,1-0.4,1-1
					c0-1.2-0.9-2.1-2.1-2.1h-1.8l-0.3-2c3.3-0.7,5.8-3.7,5.8-7.2v-2.6C25.3,24.6,25.1,24.4,24.9,24.4z M22.8,38.8
					c0,0.1-0.1,0.1-0.1,0.1h-9.5c-0.1,0-0.1-0.1-0.1-0.1c0-0.7,0.6-1.2,1.2-1.2h7.3C22.3,37.5,22.8,38.1,22.8,38.8L22.8,38.8z
					 M18.9,36.7h-2l0.2-1.9c0.2,0,0.5,0,0.7,0c0.3,0,0.5,0,0.7,0L18.9,36.7z"/>
				<path d="M28,14.5h8.5c0.2,0,0.4-0.2,0.4-0.4c0-0.2-0.2-0.4-0.4-0.4H28c-0.2,0-0.4,0.2-0.4,0.4C27.6,14.3,27.8,14.5,28,14.5
					L28,14.5z"/>
				<path d="M28,17.7h8.5c0.2,0,0.4-0.2,0.4-0.4s-0.2-0.4-0.4-0.4H28c-0.2,0-0.4,0.2-0.4,0.4S27.8,17.7,28,17.7L28,17.7z"/>
				<path d="M13.8,30.1c0.2-0.1,0.3-0.4,0.2-0.6c-0.4-0.7-0.5-1.4-0.5-2.1v-0.7h9v0.7c0,2.5-2,4.5-4.5,4.5c-1,0-2-0.3-2.8-1
					c-0.2-0.1-0.5-0.1-0.6,0.1c-0.1,0.2-0.1,0.5,0.1,0.6c0.9,0.7,2.1,1.1,3.3,1.1c3,0,5.4-2.4,5.4-5.4c0-1,0-6.1,0-6.9
					c0-3-2.4-5.4-5.4-5.4c-3,0-5.4,2.4-5.4,5.4v6.9c0,0.9,0.2,1.8,0.6,2.6C13.3,30.1,13.6,30.2,13.8,30.1L13.8,30.1z M17.9,15.9
					c2.2,0,4,1.6,4.4,3.6h-2.7c-0.2,0-0.4,0.2-0.4,0.4s0.2,0.4,0.4,0.4h2.8c0,0,0,0,0,0.1v1.1h-2.8c-0.2,0-0.4,0.2-0.4,0.4
					s0.2,0.4,0.4,0.4h2.8v1.1h-2.8c-0.2,0-0.4,0.2-0.4,0.4s0.2,0.4,0.4,0.4h2.8v1.5h-9v-1.5h2.8c0.2,0,0.4-0.2,0.4-0.4
					s-0.2-0.4-0.4-0.4h-2.8v-1.1h2.8c0.2,0,0.4-0.2,0.4-0.4c0-0.2-0.2-0.4-0.4-0.4h-2.8v-1.1c0,0,0,0,0-0.1h2.8
					c0.2,0,0.4-0.2,0.4-0.4s-0.2-0.4-0.4-0.4h-2.7C13.9,17.4,15.8,15.9,17.9,15.9L17.9,15.9z"/>
				<path d="M36.1,10.8h-8.2c-1.9,0-3.4,1.5-3.4,3.4v0.8c0,0.2,0.2,0.4,0.4,0.4c0.2,0,0.4-0.2,0.4-0.4v-0.8c0-1.4,1.1-2.5,2.5-2.5
					h8.2c1.4,0,2.5,1.1,2.5,2.5v3.5c0,1.4-1.1,2.5-2.5,2.5h-4.7c-0.4,0-0.8,0.2-1.1,0.5l-2,2.8v-2.1c0-0.6-0.4-1.1-1-1.3
					c-1.1-0.3-1.9-1.3-1.9-2.4v-0.8c0-0.2-0.2-0.4-0.4-0.4c-0.2,0-0.4,0.2-0.4,0.4v0.8c0,1.6,1.1,2.9,2.6,3.3c0.2,0,0.3,0.2,0.3,0.5
					V24c0,0.7,0.9,0.9,1.3,0.4l2.3-3.2c0.1-0.1,0.2-0.2,0.4-0.2h4.7c1.9,0,3.4-1.5,3.4-3.4v-3.5C39.5,12.3,38,10.8,36.1,10.8
					L36.1,10.8z"/>
			</g>
		</g>
	</g>
</g>
</svg>
