<?xml version="1.0" encoding="utf-8"?>
<!-- Generator: Adobe Illustrator 23.1.1, SVG Export Plug-In . SVG Version: 6.00 Build 0)  -->
<svg version="1.1" id="Capa_1" xmlns="http://www.w3.org/2000/svg" xmlns:xlink="http://www.w3.org/1999/xlink" x="0px" y="0px"
	 viewBox="0 0 50 50" style="enable-background:new 0 0 50 50;" xml:space="preserve">
<style type="text/css">
	.st0{fill:#FFFFFF;stroke:#D08600;stroke-width:1.5707;stroke-miterlimit:10;}
	.st1{fill:#B5ADB7;}
	.st2{fill:#A59DA7;}
	.st3{fill:#968D97;}
	.st4{fill:#877F87;}
	.st5{fill:#FDFCFC;}
	.st6{fill:#F1F1F1;}
	.st7{fill:#D4CFD5;}
	.st8{fill:#C5BEC6;}
	.st9{fill:#BED9FD;}
	.st10{fill:#CBE2FF;}
	.st11{fill:#7BA0B0;}
	.st12{fill:#DCF5FF;}
	.st13{fill:#688B96;}
	.st14{fill:#DDEAFB;}
	.st15{fill:#D5B0EC;}
	.st16{fill:#C995E4;}
	.st17{fill:#FFFFFF;stroke:#D08600;stroke-width:4.1602;stroke-miterlimit:10;}
</style>
<g>
	<circle class="st0" cx="25" cy="25" r="22.2"/>
	<g>
		<g>
			<path class="st10" d="M17.9,34.2c-0.4,0-0.7,0-1.1-0.1l-0.6,4.2h3.3L19,34.1C18.7,34.1,18.3,34.2,17.9,34.2z"/>
			<path class="st11" d="M22.9,20.1c0-2.7-2.2-4.9-4.9-4.9c-2.7,0-4.9,2.2-4.9,4.9V26l1.2,1h7.6l1.2-1L22.9,20.1L22.9,20.1z"/>
			<g>
				<g>
					<path class="st12" d="M13,27.1c0,2.7,2.2,4.9,4.9,4.9c2.7,0,4.9-2.2,4.9-4.9V26H13L13,27.1z"/>
					<path class="st13" d="M17.9,15.2c-0.4,0-0.8,0-1.2,0.1c2.2,0.5,3.8,2.5,3.8,4.8v6.8h1.1l1.2-1v-5.9
						C22.9,17.4,20.7,15.2,17.9,15.2z"/>
					<path class="st14" d="M20.6,26v1.1c0,2.3-1.6,4.3-3.8,4.8c0.4,0.1,0.8,0.1,1.2,0.1c2.7,0,4.9-2.2,4.9-4.9V26H20.6z"/>
					<path class="st12" d="M21.6,36.8h-7.3c-0.9,0-1.7,0.7-1.7,1.7c0,0.3,0.3,0.6,0.6,0.6h9.5c0.3,0,0.6-0.3,0.6-0.6
						C23.2,37.6,22.5,36.8,21.6,36.8L21.6,36.8z"/>
					<path class="st14" d="M21.6,36.8h-1.7c0.6,0,1.1,0.5,1.1,1.1v1.2h1.7c0.3,0,0.6-0.3,0.6-0.6C23.2,37.6,22.5,36.8,21.6,36.8z"/>
				</g>
				<g>
					<g>
						<g>
							<g>
								<g>
									<path class="st15" d="M36.1,10.9h-8.2c-1.6,0-2.9,1.3-2.9,2.9v3.5c0,1.4,1,2.6,2.3,2.9c0.4,0.1,0.7,0.5,0.7,0.9v2.6
										c0,0.3,0.3,0.4,0.5,0.2l2.3-3.2c0.2-0.2,0.4-0.4,0.7-0.4h4.7c1.6,0,2.9-1.3,2.9-2.9v-3.5C39,12.3,37.7,10.9,36.1,10.9
										L36.1,10.9z"/>
								</g>
							</g>
						</g>
					</g>
				</g>
				<g>
					<path class="st16" d="M27.8,21.4v2.3c0,0.3,0.3,0.4,0.5,0.2l2.3-3.2c0.2-0.2,0.4-0.4,0.7-0.4h-2c-0.4,0-0.9,0.2-1.1,0.6
						L27.8,21.4z"/>
					<path class="st16" d="M36.1,10.9h-0.9c0.9,0,1.6,0.7,1.6,1.6v6.3c0,0.9-0.7,1.6-1.6,1.6h0.9c1.6,0,2.9-1.3,2.9-2.9v-3.5
						C39,12.3,37.7,10.9,36.1,10.9L36.1,10.9z"/>
				</g>
			</g>
		</g>
		<g>
			<g>
				<path d="M24.9,24.2c-0.2,0-0.4,0.2-0.4,0.4v2.6c0,3.6-2.9,6.6-6.6,6.6c-3.6,0-6.6-2.9-6.6-6.6v-2.6c0-0.2-0.2-0.4-0.4-0.4
					c-0.2,0-0.4,0.2-0.4,0.4v2.6c0,3.5,2.5,6.5,5.8,7.2l-0.3,2h-1.8c-1.2,0-2.1,0.9-2.1,2.1c0,0.5,0.4,1,1,1h9.5c0.5,0,1-0.4,1-1
					c0-1.2-0.9-2.1-2.1-2.1h-1.8l-0.3-2c3.3-0.7,5.8-3.7,5.8-7.2v-2.6C25.3,24.4,25.1,24.2,24.9,24.2z M22.8,38.5
					c0,0.1-0.1,0.1-0.1,0.1h-9.5c-0.1,0-0.1-0.1-0.1-0.1c0-0.7,0.6-1.2,1.2-1.2h7.3C22.3,37.3,22.8,37.8,22.8,38.5L22.8,38.5z
					 M18.9,36.4h-2l0.2-1.9c0.2,0,0.5,0,0.7,0c0.3,0,0.5,0,0.7,0L18.9,36.4z"/>
				<path d="M28,14.2h8.5c0.2,0,0.4-0.2,0.4-0.4c0-0.2-0.2-0.4-0.4-0.4H28c-0.2,0-0.4,0.2-0.4,0.4C27.6,14.1,27.8,14.2,28,14.2
					L28,14.2z"/>
				<path d="M28,17.5h8.5c0.2,0,0.4-0.2,0.4-0.4s-0.2-0.4-0.4-0.4H28c-0.2,0-0.4,0.2-0.4,0.4S27.8,17.5,28,17.5L28,17.5z"/>
				<path d="M13.8,29.8c0.2-0.1,0.3-0.4,0.2-0.6c-0.4-0.7-0.5-1.4-0.5-2.1v-0.7h9v0.7c0,2.5-2,4.5-4.5,4.5c-1,0-2-0.3-2.8-1
					c-0.2-0.1-0.5-0.1-0.6,0.1c-0.1,0.2-0.1,0.5,0.1,0.6c0.9,0.7,2.1,1.1,3.3,1.1c3,0,5.4-2.4,5.4-5.4c0-1,0-6.1,0-6.9
					c0-3-2.4-5.4-5.4-5.4c-3,0-5.4,2.4-5.4,5.4v6.9c0,0.9,0.2,1.8,0.6,2.6C13.3,29.8,13.6,29.9,13.8,29.8L13.8,29.8z M17.9,15.6
					c2.2,0,4,1.6,4.4,3.6h-2.7c-0.2,0-0.4,0.2-0.4,0.4s0.2,0.4,0.4,0.4h2.8c0,0,0,0,0,0.1v1.1h-2.8c-0.2,0-0.4,0.2-0.4,0.4
					s0.2,0.4,0.4,0.4h2.8v1.1h-2.8c-0.2,0-0.4,0.2-0.4,0.4s0.2,0.4,0.4,0.4h2.8v1.5h-9V24h2.8c0.2,0,0.4-0.2,0.4-0.4
					s-0.2-0.4-0.4-0.4h-2.8V22h2.8c0.2,0,0.4-0.2,0.4-0.4s-0.2-0.4-0.4-0.4h-2.8v-1.1c0,0,0,0,0-0.1h2.8c0.2,0,0.4-0.2,0.4-0.4
					s-0.2-0.4-0.4-0.4h-2.7C13.9,17.2,15.8,15.6,17.9,15.6L17.9,15.6z"/>
				<path d="M36.1,10.5h-8.2c-1.9,0-3.4,1.5-3.4,3.4v0.8c0,0.2,0.2,0.4,0.4,0.4c0.2,0,0.4-0.2,0.4-0.4v-0.8c0-1.4,1.1-2.5,2.5-2.5
					h8.2c1.4,0,2.5,1.1,2.5,2.5v3.5c0,1.4-1.1,2.5-2.5,2.5h-4.7c-0.4,0-0.8,0.2-1.1,0.5l-2,2.8v-2.1c0-0.6-0.4-1.1-1-1.3
					c-1.1-0.3-1.9-1.3-1.9-2.4v-0.8c0-0.2-0.2-0.4-0.4-0.4c-0.2,0-0.4,0.2-0.4,0.4v0.8c0,1.6,1.1,2.9,2.6,3.3c0.2,0,0.3,0.2,0.3,0.5
					v2.6c0,0.7,0.9,0.9,1.3,0.4L31,21c0.1-0.1,0.2-0.2,0.4-0.2h4.7c1.9,0,3.4-1.5,3.4-3.4v-3.5C39.5,12,38,10.5,36.1,10.5L36.1,10.5
					z"/>
			</g>
		</g>
	</g>
	<path class="st17" d="M11.4,8.1l27.3,33.9L11.4,8.1z"/>
</g>
</svg>
